<svg xmlns="http://www.w3.org/2000/svg" viewBox="0 0 64 64" role="img" aria-labelledby="title">
  <title>CS monogram</title>
  <defs>
    <linearGradient id="fade" x1="0%" y1="0%" x2="100%" y2="100%">
      <stop offset="0%" stop-color="#111827" />
      <stop offset="100%" stop-color="#0f172a" />
    </linearGradient>
  </defs>
  <rect width="64" height="64" rx="12" fill="url(#fade)" />
  <path
    d="M42.8 21.6c-1.8-1.6-4.3-2.6-7.5-2.6-7.4 0-12.8 5.6-12.8 12.9s5.4 13 12.8 13c3.4 0 5.9-1 7.7-2.7V36h-6.1v3.4c-.3.1-.9.3-1.5.3-3 0-5.6-2.6-5.6-7.1 0-4.4 2.6-7 5.6-7 .7 0 1.4.1 1.9.3v3.6h6.1v-8.9z"
    fill="#f8fafc"
  />
  <path
    d="M20.2 19.8c-5.7 0-9.9 4.6-9.9 9.9v4.6c0 5.3 4.2 9.9 9.9 9.9 3.5 0 5.9-1.3 7.8-3.4l-3.9-3.8c-.9 1-2 1.7-3.5 1.7-2.3 0-4-1.8-4-4.4v-4c0-2.6 1.7-4.4 4-4.4 1.5 0 2.6.7 3.4 1.6l4-3.8c-1.8-2-4.2-3.9-7.8-3.9z"
    fill="#f8fafc"
  />
</svg>
